<?xml version="1.0" encoding="UTF-8" standalone="no"?>
<!-- Created with Inkscape (http://www.inkscape.org/) -->

<svg
   xmlns:dc="http://purl.org/dc/elements/1.1/"
   xmlns:cc="http://creativecommons.org/ns#"
   xmlns:rdf="http://www.w3.org/1999/02/22-rdf-syntax-ns#"
   xmlns:svg="http://www.w3.org/2000/svg"
   xmlns="http://www.w3.org/2000/svg"
   xmlns:sodipodi="http://sodipodi.sourceforge.net/DTD/sodipodi-0.dtd"
   xmlns:inkscape="http://www.inkscape.org/namespaces/inkscape"
   width="210mm"
   height="140mm"
   viewBox="0 0 210 140"
   version="1.1"
   id="svg8"
   inkscape:version="0.92.4 (5da689c313, 2019-01-14)"
   sodipodi:docname="AMP_logo03.svg">
  <defs
     id="defs2" />
  <sodipodi:namedview
     id="base"
     pagecolor="#ffffff"
     bordercolor="#666666"
     borderopacity="1.0"
     inkscape:pageopacity="0.0"
     inkscape:pageshadow="2"
     inkscape:zoom="1"
     inkscape:cx="205.18914"
     inkscape:cy="362.42332"
     inkscape:document-units="mm"
     inkscape:current-layer="layer1"
     showgrid="false"
     inkscape:window-width="1920"
     inkscape:window-height="1017"
     inkscape:window-x="-8"
     inkscape:window-y="-8"
     inkscape:window-maximized="1" />
  <metadata
     id="metadata5">
    <rdf:RDF>
      <cc:Work
         rdf:about="">
        <dc:format>image/svg+xml</dc:format>
        <dc:type
           rdf:resource="http://purl.org/dc/dcmitype/StillImage" />
        <dc:title></dc:title>
      </cc:Work>
    </rdf:RDF>
  </metadata>
  <g
     inkscape:label="Capa 1"
     inkscape:groupmode="layer"
     id="layer1"
     transform="translate(0,-157)">
    <path
       style="fill:#000000;stroke-width:0.26458332"
       d=""
       id="path29"
       inkscape:connector-curvature="0" />
    <path
       style="fill:#000000;stroke-width:0.26458332"
       d=""
       id="path27"
       inkscape:connector-curvature="0" />
    <path
       style="fill:#000000;stroke-width:0.26458332"
       d=""
       id="path23"
       inkscape:connector-curvature="0" />
    <path
       style="fill:#000000;stroke-width:0.26458332"
       d=""
       id="path21"
       inkscape:connector-curvature="0" />
    <g
       id="g826"
       transform="matrix(1,0,0,0.84614449,0,45.527536)">
      <path
         inkscape:connector-curvature="0"
         id="path80"
         d="m 177.37748,291.96606 c -0.58208,-0.27145 -1.76898,-1.22133 -2.63755,-2.11086 l -1.57922,-1.61731 h -2.99334 c -2.10792,0 -3.28431,-0.12157 -3.97701,-0.411 -0.59243,-0.24753 -2.39483,-1.83118 -4.53178,-3.98175 l -3.54812,-3.57076 -4.01178,3.98175 -4.01177,3.98176 h -4.28874 c -3.08109,0 -4.52847,-0.10375 -5.14013,-0.36844 -1.4186,-0.61389 -4.53268,-4.03972 -5.69531,-6.26547 -0.95279,-1.82401 -1.08958,-1.9723 -1.52538,-1.65364 -0.34904,0.25523 -1.60628,0.35005 -4.64118,0.35005 -4.11756,0 -4.17146,-0.008 -4.99636,-0.70167 l -0.83389,-0.70167 -2.03068,2.01684 c -1.89152,1.87863 -2.27545,2.12393 -5.60255,3.57964 -1.96453,0.85955 -4.90913,1.99413 -6.54355,2.52129 -2.78823,0.89932 -3.18323,0.95849 -6.39892,0.95849 -1.88499,0 -3.762442,-0.12572 -4.172092,-0.27938 -0.40966,-0.15365 -1.346821,-0.87093 -2.082591,-1.59394 l -1.33776,-1.31456 -4.48307,0.31567 -4.48308,0.31566 -1.22554,1.12738 c -2.09192,1.92434 -5.0324,2.3543 -16.10467,2.35483 -10.02466,5.2e-4 -10.25496,-0.044 -12.76538,-2.46466 l -1.78517,-1.72134 -1.67195,1.60548 c -2.31736,2.22525 -3.16647,2.44861 -9.30831,2.44861 h -4.797269 l -0.777105,0.82633 c -1.268764,1.34915 -2.081911,1.55492 -6.144543,1.55492 -5.088853,0 -5.768987,-0.23292 -8.312655,-2.84678 -2.602623,-2.67445 -2.856366,-3.45847 -2.856366,-8.82569 0,-2.14692 0.125332,-4.23867 0.278514,-4.64833 0.3975,-1.06303 4.154308,-4.81163 5.410028,-5.39821 0.722241,-0.33737 1.667499,-0.49622 2.976563,-0.50018 l 1.918229,-0.006 v -1.37454 -1.37455 l 2.594208,-2.5942 2.594208,-2.59421 -1.998896,0.004 -1.998895,0.004 -4.80735,-4.8676 c -2.644044,-2.67718 -5.055059,-5.35314 -5.357813,-5.94659 -0.79197,-1.55239 -0.793202,-5.21803 -0.0021,-6.22377 l 0.548369,-0.69712 h -1.75638 c -2.080562,0 -2.585619,-0.22775 -3.398958,-1.53273 -0.899692,-1.44353 -6.409583,-14.01187 -6.751539,-15.4006 -0.8109174,-3.29325 -1.0961044,-5.53294 -1.0961044,-8.60815 0,-3.33748 3.18e-4,-3.33911 0.7733984,-4.1122 l 0.773396,-0.7734 H 9.8673609 c -0.5028033,0 -1.3140453,-0.16707 -1.8027613,-0.37127 -1.0063033,-0.42028 -1.1497353,-0.76118 -1.9588813,-4.65563 -1.112212,-5.35311 -1.148196,-5.87269 -1.291831,-18.65312 -0.122519,-10.90166 -0.08021,-13.1829 0.298805,-16.11023 0.242845,-1.87562 0.597752,-3.78062 0.788684,-4.23333 0.568968,-1.34905 2.8134083,-3.24031 4.4070687,-3.71358 1.626687,-0.48307 5.840707,-0.5535 8.451308,-0.14124 0.945885,0.14937 6.306831,1.22003 11.913214,2.37925 5.60638,1.15922 10.398646,2.10767 10.649479,2.10767 0.402026,0 0.456054,-0.32129 0.456023,-2.71198 -1.6e-5,-1.49159 0.243885,-4.73604 0.542006,-7.2099 0.680953,-5.65062 2.514362,-15.53336 3.141409,-16.93333 0.641705,-1.4327 3.362813,-3.9713 4.679723,-4.36586 0.67983,-0.20368 2.53742,-0.28136 5.3204,-0.2225 l 4.27589,0.0904 9.6698,4.82303 c 9.1288,4.5532 9.67744,4.79004 9.80652,4.23333 0.0752,-0.32433 0.31497,-1.46075 0.53283,-2.52538 0.21786,-1.06463 0.50663,-2.13619 0.64172,-2.38125 0.46033,-0.83507 3.58839,-3.72321 4.33561,-4.00306 0.40965,-0.15343 2.57521,-0.27896 4.81234,-0.27896 h 4.06752 l 7.358503,3.67036 c 6.63757,3.31077 7.49275,3.81275 8.72889,5.1238 0.87218,0.92504 1.43128,1.779 1.53785,2.34891 l 0.16744,0.89547 3.02368,-0.0821 c 2.81136,-0.0764 3.13572,-0.0318 4.61921,0.63391 0.87755,0.39382 1.63178,0.6689 1.67607,0.61129 0.0443,-0.0576 0.47555,-1.17631 0.95834,-2.48599 1.53227,-4.15668 2.4225,-5.63347 4.81639,-7.98983 1.21194,-1.19295 2.53871,-2.29428 2.94836,-2.4474 0.40966,-0.15312 2.57916,-0.2784 4.82112,-0.2784 h 4.07629 l 16.34555,8.17771 c 16.06513,8.03741 16.3737,8.2065 17.98615,9.85573 2.52153,2.57904 2.71228,3.18143 2.71921,8.58722 0.003,2.49037 -0.11382,5.15878 -0.26004,5.9298 -0.14622,0.77102 -0.20407,1.46364 -0.12856,1.53916 0.0755,0.0755 3.49914,-0.50482 7.60804,-1.28963 6.82538,-1.30366 7.85895,-1.43551 11.96454,-1.52634 2.73731,-0.0606 4.86426,0.0116 5.44159,0.18455 1.3347,0.39989 4.59646,3.8001 4.98383,5.19538 0.37623,1.35516 0.38886,19.51296 0.0178,25.63742 -0.27281,4.50323 -0.94133,8.40205 -1.86334,10.86709 -0.36069,0.96432 -1.07128,1.8965 -2.61723,3.43338 l -2.1221,2.10966 v 3.00434 3.00435 l -3.4685,6.79144 c -4.96065,9.71311 -5.41485,10.4718 -7.71014,12.87908 -1.80351,1.89151 -2.05052,2.26895 -2.05052,3.1332 0,1.29417 -0.47153,2.368 -2.0703,4.71478 -1.52637,2.2405 -4.8628,5.61943 -5.95057,6.02637 -0.40966,0.15325 -1.1538,0.27864 -1.65365,0.27864 h -0.90882 v 1.85208 1.85209 l 1.52136,0.003 c 2.33731,0.004 3.73416,0.81058 6.74687,3.89597 2.51298,2.57359 2.57969,2.67366 2.57969,3.86959 0,1.22225 0.004,1.22769 0.90882,1.22769 0.49985,0 1.24399,0.12523 1.65364,0.2783 0.99689,0.37247 5.33558,4.66072 5.79992,5.73247 0.51638,1.19186 0.51887,9.00275 0.003,10.20346 -0.20109,0.46827 -1.7897,2.25038 -3.53025,3.96025 l -3.16464,3.10885 -4.34111,-0.006 c -3.67387,-0.005 -4.50376,-0.0817 -5.39943,-0.4994 z M 45.296504,259.63548 c -0.209273,-0.20928 -0.430409,-0.21156 -0.780521,-0.008 -0.428263,0.24893 -0.392242,0.28495 0.291999,0.292 0.569206,0.006 0.701466,-0.071 0.488522,-0.28395 z"
         style="fill:#988798;stroke:#5e5e74;stroke-width:4;stroke-miterlimit:4;stroke-dasharray:none;stroke-opacity:1;paint-order:stroke markers fill" />
      <path
         inkscape:connector-curvature="0"
         id="path106"
         d="m 33.424922,251.12511 c -3.437673,-3.58044 -3.452085,-3.59743 -3.953018,-4.6608 -0.409012,-0.86823 -0.42036,-1.04451 -0.08764,-1.36131 0.210219,-0.20015 3.399478,-1.87756 7.087243,-3.72758 4.4552,-2.235 6.616539,-3.45214 6.441316,-3.62737 -0.175223,-0.17522 -3.006283,-0.0325 -8.437251,0.4255 -4.495448,0.37906 -8.416517,0.6892 -8.713488,0.6892 -0.627531,0 -0.904557,-0.52434 -4.403303,-8.33437 -2.689653,-6.00395 -2.927401,-6.6743 -3.64302,-10.27205 -0.603215,-3.03263 -0.648925,-4.23803 -0.175608,-4.63084 0.324386,-0.26922 2.973883,-0.57698 12.887786,-1.497 7.071136,-0.65621 7.143751,-0.6672 7.143751,-1.08164 0,-0.20781 -0.104588,-0.37784 -0.232416,-0.37784 -0.88619,0 -21.882856,-3.22402 -22.043614,-3.38478 -0.219059,-0.21905 -1.554141,-6.17229 -2.059378,-9.18292 -0.170947,-1.01865 -0.377365,-5.60256 -0.458708,-10.18646 -0.122849,-6.9229 -0.07215,-8.91689 0.299373,-11.77396 0.245998,-1.89177 0.560303,-3.55333 0.698455,-3.69235 0.159583,-0.16058 0.80548,-0.13485 1.771132,0.0705 2.357469,0.50145 93.509616,19.36049 94.256426,19.5013 0.3638,0.0686 1.01865,0.13708 1.45521,0.15219 0.43656,0.0151 19.42703,-3.49652 42.20104,-7.80362 22.77401,-4.30709 41.60152,-7.83111 41.83891,-7.83114 0.76723,-1e-4 1.02373,2.03999 1.02104,8.12075 -0.005,11.76378 -0.67168,17.53445 -2.53795,21.97555 l -0.36135,0.85989 h -11.89492 c -6.5422,0 -11.94921,0.0893 -12.01558,0.19844 -0.0664,0.10914 2.45668,1.32269 5.60678,2.69677 12.30747,5.36857 14.11556,6.19737 14.24267,6.52861 0.0724,0.18864 -1.61082,3.71162 -3.74045,7.82884 -4.61134,8.91512 -5.65913,10.79378 -6.11835,10.97 -0.19019,0.073 -3.98581,-0.88945 -8.43472,-2.13874 -8.14199,-2.28633 -8.87483,-2.45556 -8.87483,-2.0495 0,0.12206 3.15516,2.32496 7.01146,4.89534 3.8563,2.57037 7.01146,4.8058 7.01146,4.96762 0,0.16182 -0.77121,1.47126 -1.7138,2.90987 -1.3425,2.04897 -1.84489,2.61566 -2.31884,2.61566 -0.57049,0 -1.59647,-0.34664 -4.69861,-1.5875 -0.7276,-0.29104 -1.91823,-0.76729 -2.64583,-1.05833 -0.72761,-0.29105 -1.91823,-0.76729 -2.64584,-1.05834 -0.7276,-0.29104 -1.91823,-0.76729 -2.64583,-1.05833 -1.36634,-0.54653 -3.41157,-1.34779 -5.02708,-1.96946 -0.50933,-0.19599 -1.55112,-0.60694 -2.31511,-0.91323 -0.76398,-0.30629 -1.98437,-0.79502 -2.71198,-1.08606 -0.7276,-0.29104 -1.91823,-0.76729 -2.64583,-1.05833 -0.7276,-0.29105 -1.91823,-0.7673 -2.64583,-1.05834 -0.72761,-0.29104 -1.91823,-0.76729 -2.64584,-1.05833 -0.7276,-0.29104 -1.91823,-0.76729 -2.64583,-1.05833 -0.7276,-0.29105 -1.91823,-0.76729 -2.64583,-1.05834 -0.72761,-0.29104 -1.91823,-0.76729 -2.64584,-1.05833 -0.7276,-0.29104 -1.91823,-0.76729 -2.64583,-1.05833 -1.36634,-0.54654 -3.41157,-1.3478 -5.02708,-1.96946 -0.50933,-0.19599 -1.55112,-0.60695 -2.31511,-0.91324 -0.76398,-0.30629 -1.98437,-0.79501 -2.71198,-1.08605 -0.7276,-0.29104 -1.91823,-0.7673 -2.64583,-1.05834 -7.30841,-2.92336 -6.76976,-2.76929 -7.96298,-2.27765 -1.03836,0.42784 -2.43426,0.96544 -4.274,1.64602 -0.5457,0.20188 -1.43867,0.53222 -1.98437,0.7341 -0.54571,0.20187 -1.52797,0.57248 -2.18282,0.82358 -0.65484,0.25109 -1.60735,0.60827 -2.116672,0.79375 -0.50933,0.18547 -1.4023,0.51581 -1.98439,0.73409 -0.58208,0.21828 -1.534578,0.57547 -2.116668,0.79375 -0.58208,0.21828 -1.56435,0.58889 -2.18281,0.82358 -0.61846,0.23468 -1.57096,0.59187 -2.11667,0.79375 -1.41747,0.52437 -3.18598,1.20232 -4.56406,1.74962 -0.65484,0.26006 -1.69664,0.66411 -2.3151,0.89788 -0.61847,0.23377 -1.6305,0.61705 -2.24896,0.85173 -0.61847,0.23469 -1.57097,0.59188 -2.11667,0.79375 -0.5457,0.20188 -1.4982,0.55907 -2.11667,0.79375 -0.61846,0.23469 -1.54119,0.57846 -2.05052,0.76393 -1.01738,0.37048 -2.43763,0.90136 -4.16718,1.55767 -1.431609,0.54325 -2.970156,1.1202 -4.233338,1.5875 -0.545703,0.20188 -1.498203,0.55906 -2.116666,0.79375 -0.618464,0.23469 -1.600729,0.6053 -2.182813,0.82358 -0.582083,0.21828 -1.564349,0.58889 -2.182812,0.82357 -0.618464,0.23469 -1.541198,0.57846 -2.050521,0.76393 -0.509323,0.18547 -1.432057,0.52923 -2.050521,0.76392 -1.431605,0.54325 -2.970152,1.1202 -4.233333,1.5875 -0.545704,0.20188 -1.527969,0.57249 -2.182813,0.82358 -0.654844,0.25109 -1.607344,0.60828 -2.116667,0.79375 -1.017386,0.37048 -2.43763,0.90136 -4.167187,1.55767 -1.431605,0.54325 -2.970152,1.1202 -4.233334,1.5875 -0.545703,0.20188 -1.468437,0.55217 -2.05052,0.77842 -2.298872,0.89357 -2.098765,0.96329 -4.543645,-1.58311 z"
         style="fill:#dacbd9;stroke:#5e5e74;stroke-width:4;stroke-miterlimit:4;stroke-dasharray:none;stroke-opacity:1;paint-order:stroke markers fill" />
      <path
         inkscape:connector-curvature="0"
         id="path93"
         d="m 181.22922,284.02171 c -2.05685,-1.08679 -2.10468,-1.6781 -0.32819,-4.05734 1.23431,-1.65309 1.45442,-1.84238 2.14903,-1.84803 0.59558,-0.005 2.2802,1.70598 2.2802,2.31567 0,0.80709 -2.43523,4.04194 -3.02606,4.01969 -0.15468,-0.006 -0.63842,-0.19932 -1.07498,-0.42999 z M 29.270685,282.67635 c -0.506698,-0.98328 -1.13342,-3.24235 -0.971979,-3.50356 0.274849,-0.44472 2.271639,-1.37351 2.644923,-1.23026 0.188831,0.0725 0.601597,0.90784 0.917261,1.85642 0.664847,1.99786 0.507127,2.58655 -0.816618,3.04801 -1.152078,0.40162 -1.495748,0.36856 -1.773587,-0.17061 z m 12.461222,-2.35692 c -0.317604,-0.26804 -0.829207,-1.13876 -1.136891,-1.93494 -0.82127,-2.12512 -1.90037,-6.82131 -1.707243,-7.42981 0.249291,-0.78544 2.55718,-1.84716 4.159949,-1.91374 l 1.366837,-0.0568 1.253834,3.175 c 1.741075,4.40879 2.025497,5.72313 1.433883,6.62605 -0.515088,0.78612 -2.157645,1.60016 -3.739017,1.85303 -0.811779,0.12981 -1.186548,0.0566 -1.631352,-0.31882 z m 102.699483,-0.29296 c -0.15693,-0.10691 -1.26389,-1.94095 -2.45992,-4.07564 -2.10181,-3.75136 -3.20788,-6.27693 -3.20788,-7.32479 0,-0.4836 1.94289,-2.3077 3.51995,-3.30475 0.40801,-0.25795 0.80909,-0.64427 0.89129,-0.8585 0.0822,-0.21422 -0.86404,-2.49924 -2.10276,-5.07781 -4.35254,-9.0604 -5.0119,-10.54308 -6.43848,-14.4779 -2.15192,-5.93547 -2.94262,-9.50893 -3.92483,-17.73775 -0.53563,-4.48741 -0.54059,-15.60068 -0.01,-21.81745 0.35833,-4.19629 0.35639,-4.65893 -0.0207,-4.93663 -0.36805,-0.27107 -1.49498,-0.60713 -5.59502,-1.66851 -1.79391,-0.46439 -1.93083,-0.73458 -1.92509,-3.79866 0.0151,-8.04424 1.44122,-21.20218 3.31042,-30.54296 1.37943,-6.89334 5.05668,-16.60362 6.54444,-17.28149 0.56644,-0.25808 2.38848,0.58709 16.77876,7.78299 14.67963,7.34059 16.17429,8.14731 16.48503,8.89749 0.30408,0.73412 0.0888,2.37542 -1.9544,14.90252 -3.94751,24.20223 -4.28111,25.89359 -5.36009,27.17588 -0.48058,0.57114 -1.07603,0.85367 -2.46481,1.16955 -2.48707,0.56567 -3.14529,0.53697 -8.70985,-0.37977 -2.65827,-0.43794 -4.94274,-0.72857 -5.07659,-0.64585 -0.3382,0.20902 -0.29624,2.76257 0.15195,9.24731 0.43969,6.36185 0.58722,7.41293 1.10021,7.83868 0.25723,0.21348 0.98983,0.24699 2.41347,0.11041 3.9607,-0.37999 3.56799,-0.53106 4.09374,1.57482 0.25417,1.01805 1.24753,4.41133 2.20747,7.54062 1.41809,4.6228 2.19073,6.60664 4.1206,10.58017 2.08973,4.30266 5.34184,9.8882 8.06888,13.85843 0.486,0.70755 0.88364,1.57972 0.88364,1.93815 0,0.48807 -1.32598,2.02508 -5.28135,6.12187 -11.71906,12.13808 -14.97719,15.40431 -15.35615,15.39437 -0.21828,-0.006 -0.52527,-0.0979 -0.6822,-0.2048 z m 8.78442,-78.99989 c 0.60257,-0.70053 1.07137,-2.43678 1.33148,-4.93128 0.2197,-2.10694 -0.0945,-2.36849 -4.58861,-3.81917 -2.06463,-0.66647 -3.96963,-1.21109 -4.23333,-1.21028 -1.1984,0.004 -2.47712,0.57966 -2.83853,1.27854 -0.42449,0.82087 -0.94823,4.20014 -0.94823,6.11815 0,2.09731 0.3279,2.30292 4.63021,2.90338 4.58219,0.63953 5.86119,0.57423 6.64701,-0.33934 z m 15.47951,77.88652 c -2.4159,-2.01053 -2.41883,-1.98015 0.62045,-6.43009 2.19923,-3.21998 2.64508,-3.54867 4.21664,-3.10866 1.38953,0.38905 3.0666,1.7016 3.0666,2.40006 0,0.54573 -4.31836,7.5831 -4.98503,8.12382 -0.70231,0.56961 -1.28799,0.37193 -2.91866,-0.98513 z"
         style="fill:#baa5ba;stroke:#444455;stroke-width:4;stroke-linejoin:round;stroke-miterlimit:4;stroke-dasharray:none;stroke-opacity:1;paint-order:stroke markers fill" />
      <path
         inkscape:connector-curvature="0"
         id="path67"
         d="m 102.85756,280.05017 c -0.41185,-0.49625 -1.37336,-2.76649 -1.8172,-4.29064 -0.429,-1.47314 -1.318712,-4.67402 -2.463702,-8.86354 -0.41758,-1.52797 -1.0568,-3.84969 -1.420478,-5.15937 -1.18363,-4.26252 -4.30461,-16.57456 -5.19787,-20.50521 -0.47952,-2.11005 -1.20428,-5.20568 -1.61059,-6.87917 -2.23272,-9.19607 -2.23153,-9.27771 0.14321,-9.80915 0.80914,-0.18108 1.47081,-0.45911 1.4704,-0.61786 -5.3e-4,-0.15874 -0.22766,-1.65784 -0.50498,-3.33133 -0.27733,-1.67349 -0.6396,-4.47146 -0.80505,-6.21771 -0.35072,-3.7016 -1.53213,-14.68401 -1.80734,-16.80104 l -0.18917,-1.45521 -2.28367,-0.66146 c -1.25602,-0.3638 -2.47641,-0.82486 -2.71198,-1.02458 -0.51764,-0.43887 -0.57612,-3.19147 -0.1581,-7.44208 0.82749,-8.41429 1.14397,-11.3683 1.61576,-15.08125 0.61983,-4.87805 4.32679,-24.04567 4.72794,-24.44682 0.19698,-0.19698 2.50678,0.83253 7.788458,3.47143 7.016182,3.50552 7.527022,3.8087 7.791962,4.62436 0.39851,1.22687 1.65338,9.89646 2.94117,20.31978 0.6023,4.87494 1.19513,9.22072 1.31739,9.65729 0.19997,0.71398 0.22471,0.662 0.24617,-0.5172 0.0308,-1.69152 1.10208,-9.38899 2.4504,-17.60676 0.96441,-5.8779 1.51112,-8.20208 1.92937,-8.20208 0.0823,0 1.69333,0.77358 3.58015,1.71906 3.96296,1.98585 3.96743,1.99247 3.46829,5.1401 -0.76656,4.83397 -1.33842,10.04555 -1.62801,14.83667 -0.26542,4.39133 -0.24622,6.09739 0.129,11.46048 0.24246,3.4656 0.66688,7.69232 0.94316,9.3927 0.27628,1.70039 0.74641,5.05614 1.04473,7.45724 0.29833,2.40109 0.67947,4.8808 0.84698,5.51047 0.26025,0.9783 0.38534,1.12263 0.85978,0.99205 0.30537,-0.084 0.99035,-0.22568 1.52217,-0.31474 1.12581,-0.18853 1.37324,0.10961 1.67172,2.0143 0.57889,3.69406 3.45441,17.77373 4.36015,21.34901 1.51709,5.98846 5.69702,16.67365 8.91192,22.78161 0.63519,1.20678 1.15489,2.41631 1.15489,2.68783 0,0.29353 -0.72405,1.06652 -1.78594,1.90667 -2.47107,1.95506 -7.2394,5.34849 -8.55262,6.08656 l -1.09005,0.61264 -0.50203,-0.61998 c -1.38253,-1.70735 -5.93908,-19.04756 -8.03955,-30.59496 -0.68823,-3.78354 -1.89604,-10.38445 -2.68403,-14.6687 -1.47306,-8.00896 -2.97789,-20.14407 -3.5259,-28.43331 -0.15302,-2.31454 -0.29253,-7.13657 -0.31003,-10.71562 l -0.0318,-6.50738 -1.0192,8.46667 c -1.30163,10.81287 -2.37908,20.47309 -2.36653,21.21781 0.0184,1.0922 -2.15227,1.90891 -2.84741,1.07133 -0.37345,-0.44998 -4.94114,-15.01101 -5.74698,-18.32039 -0.57283,-2.35248 -2.16445,-14.19494 -2.720318,-20.24062 -0.195734,-2.1287 -0.217364,-1.97306 -0.404574,2.91041 -0.32109,8.37621 1.343602,35.11753 2.742382,44.05313 1.76139,11.25204 2.95129,16.17639 7.57606,31.35313 5.39006,17.68813 6.57057,21.92419 6.35228,22.79392 -0.16326,0.65051 -1.13699,1.186 -5.40468,2.97227 -0.9095,0.38068 -2.33825,0.98075 -3.175,1.33349 -3.65609,1.54126 -4.3147,1.69772 -4.78109,1.13575 z"
         style="fill:#baa5ba;stroke:#444455;stroke-width:4;stroke-miterlimit:4;stroke-dasharray:none;stroke-opacity:1;paint-order:stroke markers fill" />
      <path
         inkscape:connector-curvature="0"
         id="path119"
         d="m 65.094791,279.99189 c -1.95518,-0.22409 -3.02184,-0.69597 -3.45954,-1.53049 -0.64697,-1.23351 -6.02375,-19.20535 -7.42532,-24.81904 -1.3064,-5.23253 -4.21291,-19.85841 -4.71155,-23.70899 -0.17525,-1.35333 0.21526,-1.49907 5.25353,-1.9606 2.34016,-0.21437 4.47858,-0.50951 4.75204,-0.65586 0.76274,-0.40821 0.83305,-1.19335 0.45104,-5.03642 l -0.35276,-3.54877 -1.7882,0.0831 -1.78821,0.0831 -0.37325,-0.89332 c -1.1844,-2.83466 -2.71264,-12.02271 -2.10139,-12.63395 0.14392,-0.14393 0.97484,-0.33623 1.84648,-0.42733 l 1.58481,-0.16564 -0.10922,-7.57507 c -0.0641,-4.44652 0.0109,-8.77708 0.18163,-10.48548 0.15997,-1.60073 0.36309,-3.90367 0.45138,-5.11765 l 0.16052,-2.20724 -3.16866,0.18912 c -3.01752,0.1801 -3.18242,0.16342 -3.4571,-0.34983 -0.42711,-0.79806 -0.10261,-10.40152 0.53381,-15.79773 0.55237,-4.68362 2.44892,-15.70025 2.88097,-16.7349 0.1648,-0.39464 0.47388,-0.59531 0.91695,-0.59531 0.3676,0 5.6719,2.50232 11.78734,5.56072 8.769754,4.38585 11.183074,5.70139 11.422344,6.22652 0.23664,0.51938 0.20231,1.28933 -0.15614,3.50125 -1.42892,8.81772 -1.77636,11.89872 -2.03536,18.04901 -0.4124,9.7931 -0.55963,19.98617 -0.32294,22.35729 l 0.21129,2.11667 2.13511,-0.0846 c 1.6118,-0.0639 2.21233,0.008 2.45015,0.29501 0.52181,0.62874 1.12712,5.95306 1.04623,9.20261 l -0.0752,3.02237 -1.85209,0.26607 c -1.74107,0.25011 -1.85706,0.30916 -1.93513,0.9852 -0.11083,0.95976 0.91835,6.95566 1.34558,7.83915 0.43719,0.90411 1.1129,0.89326 5.61664,-0.0903 4.96634,-1.08456 5.55703,-1.11982 6.0287,-0.35992 0.21172,0.34109 0.7672,2.7633 1.23439,5.38268 1.94067,10.88054 4.79706,22.48466 8.814895,35.81048 1.50427,4.98919 1.59502,5.43306 1.23924,6.06168 -0.42002,0.74212 -1.23262,1.06932 -6.469315,2.60488 -4.23004,1.24039 -7.14084,1.67785 -7.66296,1.15167 -0.71541,-0.72098 -2.71209,-5.66576 -4.05501,-10.04225 -1.44666,-4.71458 -1.96209,-6.74326 -4.03334,-15.875 -0.74266,-3.27422 -1.94374,-8.51297 -2.66908,-11.64167 -2.0302,-8.75716 -3.607834,-16.61095 -3.815934,-18.9966 -0.11497,-1.31806 -0.33194,-2.28035 -0.55608,-2.46637 -0.4908,-0.40733 -4.25267,-0.0724 -5.05499,0.45003 -0.51216,0.3335 -0.59531,0.61786 -0.59531,2.03572 0,0.90644 0.22372,2.83846 0.49716,4.29337 0.27345,1.45491 0.57817,3.35968 0.67716,4.23281 0.2587,2.28178 0.89973,5.75688 1.51037,8.18794 0.29047,1.15639 0.8851,3.94943 1.32139,6.20674 1.06692,5.52008 6.236314,26.20208 7.743674,30.98136 0.66551,2.11005 1.21109,4.09066 1.21242,4.40134 0.001,0.31262 -0.29331,0.75865 -0.65978,0.99877 -1.43233,0.9385 -10.494774,1.6968 -14.623344,1.22361 z m 5.95897,-76.41239 c 0.41484,-0.53566 0.41377,-0.58791 -0.0908,-4.42694 -0.23837,-1.81369 -0.49271,-6.476 -0.5932,-10.87393 -0.13555,-5.9322 -0.25925,-7.79921 -0.53904,-8.13594 -0.29284,-0.35242 -0.87025,-0.43701 -2.98312,-0.43701 -2.61194,0 -2.62086,0.002 -2.90803,0.72761 -0.40145,1.01403 -0.0935,10.2191 0.56422,16.86718 0.28795,2.91042 0.52515,5.4405 0.52711,5.6224 0.002,0.1819 0.25469,0.58185 0.56162,0.88878 0.51387,0.51387 0.73909,0.54368 2.84427,0.37648 1.62866,-0.12936 2.38134,-0.30441 2.61695,-0.60863 z"
         style="fill:#baa5ba;stroke:#444455;stroke-width:4;stroke-miterlimit:4;stroke-dasharray:none;stroke-opacity:1;paint-order:stroke markers fill" />
    </g>
  </g>
</svg>
