<?xml version="1.0" encoding="UTF-8" standalone="no"?>
<!-- Created with Inkscape (http://www.inkscape.org/) -->

<svg
   xmlns:dc="http://purl.org/dc/elements/1.1/"
   xmlns:cc="http://creativecommons.org/ns#"
   xmlns:rdf="http://www.w3.org/1999/02/22-rdf-syntax-ns#"
   xmlns:svg="http://www.w3.org/2000/svg"
   xmlns="http://www.w3.org/2000/svg"
   xmlns:sodipodi="http://sodipodi.sourceforge.net/DTD/sodipodi-0.dtd"
   xmlns:inkscape="http://www.inkscape.org/namespaces/inkscape"
   width="210mm"
   height="140mm"
   viewBox="0 0 210 140"
   version="1.1"
   id="svg8"
   inkscape:version="0.92.4 (5da689c313, 2019-01-14)"
   sodipodi:docname="AMP_logo04.svg">
  <defs
     id="defs2" />
  <sodipodi:namedview
     id="base"
     pagecolor="#ffffff"
     bordercolor="#666666"
     borderopacity="1.0"
     inkscape:pageopacity="0.0"
     inkscape:pageshadow="2"
     inkscape:zoom="1"
     inkscape:cx="427.40335"
     inkscape:cy="362.42332"
     inkscape:document-units="mm"
     inkscape:current-layer="layer1"
     showgrid="false"
     inkscape:window-width="1920"
     inkscape:window-height="1017"
     inkscape:window-x="-8"
     inkscape:window-y="-8"
     inkscape:window-maximized="1" />
  <metadata
     id="metadata5">
    <rdf:RDF>
      <cc:Work
         rdf:about="">
        <dc:format>image/svg+xml</dc:format>
        <dc:type
           rdf:resource="http://purl.org/dc/dcmitype/StillImage" />
        <dc:title></dc:title>
      </cc:Work>
    </rdf:RDF>
  </metadata>
  <g
     inkscape:label="Capa 1"
     inkscape:groupmode="layer"
     id="layer1"
     transform="translate(0,-157)">
    <path
       style="fill:#000000;stroke-width:0.26458332"
       d=""
       id="path29"
       inkscape:connector-curvature="0" />
    <path
       style="fill:#000000;stroke-width:0.26458332"
       d=""
       id="path27"
       inkscape:connector-curvature="0" />
    <path
       style="fill:#000000;stroke-width:0.26458332"
       d=""
       id="path23"
       inkscape:connector-curvature="0" />
    <path
       style="fill:#000000;stroke-width:0.26458332"
       d=""
       id="path21"
       inkscape:connector-curvature="0" />
    <path
       style="fill:#988798;stroke:#5e5e74;stroke-width:3;stroke-miterlimit:4;stroke-dasharray:none;stroke-opacity:1;paint-order:stroke markers fill"
       d="m 177.37748,292.57301 c -0.58208,-0.22969 -1.76898,-1.03342 -2.63755,-1.78609 l -1.57922,-1.36848 h -2.99334 c -2.10792,0 -3.28431,-0.10287 -3.97701,-0.34777 -0.59243,-0.20944 -2.39483,-1.54944 -4.53178,-3.36913 l -3.54812,-3.02138 -4.01178,3.36913 -4.01177,3.36915 h -4.28874 c -3.08109,0 -4.52847,-0.0878 -5.14013,-0.31176 -1.4186,-0.51943 -4.53268,-3.41818 -5.69531,-5.30149 -0.95279,-1.54337 -1.08958,-1.66885 -1.52538,-1.39922 -0.34904,0.21597 -1.60628,0.2962 -4.64118,0.2962 -4.11756,0 -4.17146,-0.007 -4.99636,-0.59372 l -0.83389,-0.59371 -2.03068,1.70654 c -1.89152,1.58959 -2.27545,1.79715 -5.60255,3.02889 -1.96453,0.7273 -4.90913,1.68732 -6.54355,2.13337 -2.78823,0.76096 -3.18323,0.81103 -6.39892,0.81103 -1.88499,0 -3.762442,-0.10638 -4.172092,-0.2364 -0.40966,-0.13001 -1.346821,-0.73693 -2.082591,-1.3487 l -1.33776,-1.11231 -4.48307,0.2671 -4.48308,0.26709 -1.22554,0.95393 c -2.09192,1.62827 -5.0324,1.99208 -16.10467,1.99253 -10.02466,4.4e-4 -10.25496,-0.0372 -12.76538,-2.08546 l -1.78517,-1.4565 -1.67195,1.35846 c -2.31736,1.88289 -3.16647,2.07188 -9.30831,2.07188 h -4.797269 l -0.777105,0.6992 c -1.268764,1.14157 -2.081911,1.31568 -6.144543,1.31568 -5.088853,0 -5.768987,-0.19708 -8.312655,-2.40878 -2.602623,-2.26297 -2.856366,-2.92637 -2.856366,-7.46781 0,-1.81661 0.125332,-3.58653 0.278514,-3.93316 0.3975,-0.89948 4.154308,-4.07133 5.410028,-4.56767 0.722241,-0.28546 1.667499,-0.41987 2.976563,-0.42322 l 1.918229,-0.005 v -1.16306 -1.16307 l 2.594208,-2.19506 2.594208,-2.19508 -1.998896,0.003 -1.998895,0.003 -4.80735,-4.11869 c -2.644044,-2.26528 -5.055059,-4.52953 -5.357813,-5.03168 -0.79197,-1.31354 -0.793202,-4.41521 -0.0021,-5.26621 l 0.548369,-0.58986 h -1.75638 c -2.080562,0 -2.585619,-0.19271 -3.398958,-1.29691 -0.899692,-1.22144 -6.409583,-11.85607 -6.751539,-13.03113 -0.8109174,-2.78657 -1.0961044,-4.68167 -1.0961044,-7.28374 0,-2.82399 3.18e-4,-2.82537 0.7733984,-3.47952 l 0.773396,-0.65441 H 9.8673609 c -0.5028033,0 -1.3140453,-0.14136 -1.8027613,-0.31414 -1.0063033,-0.35562 -1.1497353,-0.64407 -1.9588813,-3.93934 -1.112212,-4.52951 -1.148196,-4.96914 -1.291831,-15.78324 -0.122519,-9.22437 -0.08021,-11.15463 0.298805,-13.63158 0.242845,-1.58704 0.597752,-3.19895 0.788684,-3.58201 0.568968,-1.14149 2.8134083,-2.74177 4.4070687,-3.14222 1.626687,-0.40875 5.840707,-0.46834 8.451308,-0.11951 0.945885,0.12639 6.306831,1.03232 11.913214,2.01319 5.60638,0.98087 10.398646,1.78339 10.649479,1.78339 0.402026,0 0.456054,-0.27186 0.456023,-2.29473 -1.6e-5,-1.2621 0.243885,-4.00737 0.542006,-6.10061 0.680953,-4.78124 2.514362,-13.14347 3.141409,-14.32805 0.641705,-1.21227 3.362813,-3.36029 4.679723,-3.69414 0.67983,-0.17235 2.53742,-0.23808 5.3204,-0.18827 l 4.27589,0.0765 9.6698,4.08098 c 9.1288,3.85266 9.67744,4.05307 9.80652,3.58201 0.0752,-0.27443 0.31497,-1.23601 0.53283,-2.13684 0.21786,-0.90083 0.50663,-1.80752 0.64172,-2.01488 0.46033,-0.70659 3.58839,-3.15037 4.33561,-3.38717 0.40965,-0.12982 2.57521,-0.23604 4.81234,-0.23604 h 4.06752 l 7.358503,3.10566 c 6.63757,2.80139 7.49275,3.22614 8.72889,4.33547 0.87218,0.78272 1.43128,1.50529 1.53785,1.98752 l 0.16744,0.7577 3.02368,-0.0695 c 2.81136,-0.0647 3.13572,-0.0269 4.61921,0.53638 0.87755,0.33323 1.63178,0.56598 1.67607,0.51724 0.0443,-0.0487 0.47555,-0.99533 0.95834,-2.10351 1.53227,-3.51715 2.4225,-4.76673 4.81639,-6.76055 1.21194,-1.00941 2.53871,-1.94129 2.94836,-2.07085 0.40966,-0.12957 2.57916,-0.23557 4.82112,-0.23557 h 4.07629 l 16.34555,6.91952 c 16.06513,6.80081 16.3737,6.94389 17.98615,8.33938 2.52153,2.18224 2.71228,2.69195 2.71921,7.26602 0.003,2.10722 -0.11382,4.36508 -0.26004,5.01747 -0.14622,0.6524 -0.20407,1.23845 -0.12856,1.30235 0.0755,0.0639 3.49914,-0.42715 7.60804,-1.09121 6.82538,-1.10308 7.85895,-1.21465 11.96454,-1.2915 2.73731,-0.0513 4.86426,0.01 5.44159,0.15615 1.3347,0.33837 4.59646,3.21544 4.98383,4.39604 0.37623,1.14667 0.38886,16.51079 0.0178,21.69297 -0.27281,3.81038 -0.94133,7.10934 -1.86334,9.19512 -0.36069,0.81596 -1.07128,1.60472 -2.61723,2.90514 l -2.1221,1.78508 v 2.5421 2.54212 l -3.4685,5.74654 c -4.96065,8.21869 -5.41485,8.86065 -7.71014,10.89756 -1.80351,1.60049 -2.05052,1.91986 -2.05052,2.65114 0,1.09505 -0.47153,2.00367 -2.0703,3.98938 -1.52637,1.89579 -4.8628,4.75485 -5.95057,5.09918 -0.40966,0.12968 -1.1538,0.23577 -1.65365,0.23577 h -0.90882 v 1.56713 1.56714 l 1.52136,0.003 c 2.33731,0.003 3.73416,0.68586 6.74687,3.29655 2.51298,2.17763 2.57969,2.2623 2.57969,3.27423 0,1.0342 0.004,1.0388 0.90882,1.0388 0.49985,0 1.24399,0.10597 1.65364,0.23549 0.99689,0.31516 5.33558,3.94364 5.79992,4.85049 0.51638,1.00849 0.51887,7.61763 0.003,8.63361 -0.20109,0.39622 -1.7897,1.90414 -3.53025,3.35094 l -3.16464,2.63054 -4.34111,-0.005 c -3.67387,-0.004 -4.50376,-0.0691 -5.39943,-0.42257 z M 45.296504,265.21667 c -0.209273,-0.17708 -0.430409,-0.17901 -0.780521,-0.007 -0.428263,0.21063 -0.392242,0.24111 0.291999,0.24707 0.569206,0.005 0.701466,-0.0601 0.488522,-0.24026 z"
       id="path80"
       inkscape:connector-curvature="0" />
    <path
       style="fill:#dacbd9;stroke:#5e5e74;stroke-width:5.4;stroke-miterlimit:4;stroke-dasharray:none;stroke-opacity:1;paint-order:stroke markers fill"
       d="m 33.424922,258.01566 c -3.437673,-3.02957 -3.452085,-3.04394 -3.953018,-3.94371 -0.409012,-0.73464 -0.42036,-0.8838 -0.08764,-1.15186 0.210219,-0.16936 3.399478,-1.58869 7.087243,-3.15407 4.4552,-1.89114 6.616539,-2.92101 6.441316,-3.06928 -0.175223,-0.14826 -3.006283,-0.0275 -8.437251,0.36003 -4.495448,0.32074 -8.416517,0.58317 -8.713488,0.58317 -0.627531,0 -0.904557,-0.44367 -4.403303,-7.05209 -2.689653,-5.0802 -2.927401,-5.64742 -3.64302,-8.69163 -0.603215,-2.56605 -0.648925,-3.58599 -0.175608,-3.91836 0.324386,-0.2278 2.973883,-0.48821 12.887786,-1.26668 7.071136,-0.55525 7.143751,-0.56455 7.143751,-0.91523 0,-0.17583 -0.104588,-0.3197 -0.232416,-0.3197 -0.88619,0 -21.882856,-2.72799 -22.043614,-2.86402 -0.219059,-0.18534 -1.554141,-5.22265 -2.059378,-7.77007 -0.170947,-0.86193 -0.377365,-4.74058 -0.458708,-8.61922 -0.122849,-5.85777 -0.07215,-7.54498 0.299373,-9.96247 0.245998,-1.60071 0.560303,-3.00663 0.698455,-3.12426 0.159583,-0.13588 0.80548,-0.11411 1.771132,0.0597 2.357469,0.4243 93.509616,16.38177 94.256426,16.50092 0.3638,0.058 1.01865,0.11599 1.45521,0.12877 0.43656,0.0128 19.42703,-2.95856 42.20104,-6.60299 22.77401,-3.64442 41.60152,-6.62625 41.83891,-6.62627 0.76723,-9e-5 1.02373,1.72612 1.02104,6.87132 -0.005,9.95386 -0.67168,14.83668 -2.53795,18.59449 l -0.36135,0.7276 h -11.89492 c -6.5422,0 -11.94921,0.0756 -12.01558,0.1679 -0.0664,0.0923 2.45668,1.11919 5.60678,2.28186 12.30747,4.54259 14.11556,5.24387 14.24267,5.52415 0.0724,0.15962 -1.61082,3.14057 -3.74045,6.62433 -4.61134,7.54348 -5.65913,9.1331 -6.11835,9.2822 -0.19019,0.0618 -3.98581,-0.7526 -8.43472,-1.80968 -8.14199,-1.93456 -8.87483,-2.07776 -8.87483,-1.73417 0,0.10328 3.15516,1.96725 7.01146,4.14216 3.8563,2.17491 7.01146,4.0664 7.01146,4.20333 0,0.13692 -0.77121,1.2449 -1.7138,2.46217 -1.3425,1.73372 -1.84489,2.21322 -2.31884,2.21322 -0.57049,0 -1.59647,-0.2933 -4.69861,-1.34325 -0.7276,-0.24626 -1.91823,-0.64924 -2.64583,-0.8955 -0.72761,-0.24627 -1.91823,-0.64924 -2.64584,-0.89551 -0.7276,-0.24626 -1.91823,-0.64924 -2.64583,-0.8955 -1.36634,-0.46244 -3.41157,-1.14042 -5.02708,-1.66645 -0.50933,-0.16583 -1.55112,-0.51356 -2.31511,-0.77272 -0.76398,-0.25917 -1.98437,-0.6727 -2.71198,-0.91897 -0.7276,-0.24626 -1.91823,-0.64923 -2.64583,-0.8955 -0.7276,-0.24627 -1.91823,-0.64924 -2.64583,-0.8955 -0.72761,-0.24627 -1.91823,-0.64924 -2.64584,-0.8955 -0.7276,-0.24627 -1.91823,-0.64924 -2.64583,-0.8955 -0.7276,-0.24627 -1.91823,-0.64924 -2.64583,-0.89551 -0.72761,-0.24626 -1.91823,-0.64924 -2.64584,-0.8955 -0.7276,-0.24626 -1.91823,-0.64924 -2.64583,-0.8955 -1.36634,-0.46245 -3.41157,-1.14044 -5.02708,-1.66645 -0.50933,-0.16584 -1.55112,-0.51357 -2.31511,-0.77273 -0.76398,-0.25917 -1.98437,-0.6727 -2.71198,-0.91896 -0.7276,-0.24626 -1.91823,-0.64925 -2.64583,-0.89551 -7.30841,-2.47358 -6.76976,-2.34322 -7.96298,-1.92722 -1.03836,0.36202 -2.43426,0.8169 -4.274,1.39277 -0.5457,0.17082 -1.43867,0.45034 -1.98437,0.62116 -0.54571,0.17081 -1.52797,0.4844 -2.18282,0.69686 -0.65484,0.21246 -1.60735,0.51469 -2.116672,0.67163 -0.50933,0.15694 -1.4023,0.43645 -1.98439,0.62115 -0.58208,0.18469 -1.534578,0.48693 -2.116668,0.67163 -0.58208,0.18469 -1.56435,0.49828 -2.18281,0.69686 -0.61846,0.19858 -1.57096,0.50081 -2.11667,0.67163 -1.41747,0.44369 -3.18598,1.01734 -4.56406,1.48043 -0.65484,0.22005 -1.69664,0.56193 -2.3151,0.75974 -0.61847,0.1978 -1.6305,0.52211 -2.24896,0.72068 -0.61847,0.19859 -1.57097,0.50082 -2.11667,0.67163 -0.5457,0.17082 -1.4982,0.47306 -2.11667,0.67163 -0.61846,0.19858 -1.54119,0.48946 -2.05052,0.64639 -1.01738,0.31348 -2.43763,0.76268 -4.16718,1.31802 -1.431609,0.45967 -2.970156,0.94785 -4.233338,1.34325 -0.545703,0.17082 -1.498203,0.47305 -2.116666,0.67163 -0.618464,0.19858 -1.600729,0.51217 -2.182813,0.69687 -0.582083,0.18469 -1.564349,0.49828 -2.182812,0.69686 -0.618464,0.19858 -1.541198,0.48946 -2.050521,0.64639 -0.509323,0.15694 -1.432057,0.44781 -2.050521,0.64639 -1.431605,0.45967 -2.970152,0.94785 -4.233333,1.34325 -0.545704,0.17082 -1.527969,0.48441 -2.182813,0.69687 -0.654844,0.21246 -1.607344,0.51469 -2.116667,0.67163 -1.017386,0.31348 -2.43763,0.76268 -4.167187,1.31801 -1.431605,0.45967 -2.970152,0.94785 -4.233334,1.34326 -0.545703,0.17082 -1.468437,0.46721 -2.05052,0.65865 -2.298872,0.75609 -2.098765,0.81508 -4.543645,-1.33954 z"
       id="path106"
       inkscape:connector-curvature="0" />
    <path
       style="fill:#baa5ba;stroke:#444455;stroke-width:5.4;stroke-linejoin:round;stroke-miterlimit:4;stroke-dasharray:none;stroke-opacity:1;paint-order:stroke markers fill"
       d="m 181.22922,285.85094 c -2.05685,-0.91958 -2.10468,-1.41991 -0.32819,-3.43309 1.23431,-1.39876 1.45442,-1.55892 2.14903,-1.56371 0.59558,-0.004 2.2802,1.44351 2.2802,1.9594 0,0.68291 -2.43523,3.42006 -3.02606,3.40123 -0.15468,-0.005 -0.63842,-0.16865 -1.07498,-0.36383 z M 29.270685,284.71257 c -0.506698,-0.83199 -1.13342,-2.74349 -0.971979,-2.96452 0.274849,-0.37629 2.271639,-1.16218 2.644923,-1.04097 0.188831,0.0613 0.601597,0.76816 0.917261,1.5708 0.664847,1.69047 0.507127,2.18859 -0.816618,2.57905 -1.152078,0.33983 -1.495748,0.31186 -1.773587,-0.14436 z m 12.461222,-1.99429 c -0.317604,-0.2268 -0.829207,-0.96356 -1.136891,-1.63724 -0.82127,-1.79816 -1.90037,-5.77182 -1.707243,-6.28669 0.249291,-0.6646 2.55718,-1.56297 4.159949,-1.61931 l 1.366837,-0.0481 1.253834,2.68651 c 1.741075,3.73048 2.025497,4.8426 1.433883,5.6066 -0.515088,0.66517 -2.157645,1.35396 -3.739017,1.56793 -0.811779,0.10984 -1.186548,0.0479 -1.631352,-0.26977 z m 102.699483,-0.24789 c -0.15693,-0.0905 -1.26389,-1.64232 -2.45992,-3.44858 -2.10181,-3.17419 -3.20788,-5.31119 -3.20788,-6.19783 0,-0.4092 1.94289,-1.95265 3.51995,-2.7963 0.40801,-0.21826 0.80909,-0.54514 0.89129,-0.72641 0.0822,-0.18126 -0.86404,-2.11472 -2.10276,-4.29656 -4.35254,-7.66641 -5.0119,-8.92097 -6.43848,-12.2504 -2.15192,-5.02226 -2.94262,-8.04593 -3.92483,-15.0087 -0.53563,-3.79699 -0.54059,-13.20043 -0.01,-18.46071 0.35833,-3.55067 0.35639,-3.94213 -0.0207,-4.1771 -0.36805,-0.22937 -1.49498,-0.51372 -5.59502,-1.41181 -1.79391,-0.39294 -1.93083,-0.62156 -1.92509,-3.21421 0.0151,-6.80659 1.44122,-17.94011 3.31042,-25.84376 1.37943,-5.83276 5.05668,-14.04906 6.54444,-14.62264 0.56644,-0.21837 2.38848,0.49677 16.77876,6.58554 14.67963,6.2112 16.17429,6.8938 16.48503,7.52856 0.30408,0.62117 0.0888,2.00995 -1.9544,12.60969 -3.94751,20.47858 -4.28111,21.90971 -5.36009,22.99472 -0.48058,0.48326 -1.07603,0.72233 -2.46481,0.98961 -2.48707,0.47863 -3.14529,0.45435 -8.70985,-0.32134 -2.65827,-0.37057 -4.94274,-0.61648 -5.07659,-0.54649 -0.3382,0.17686 -0.29624,2.33754 0.15195,7.82456 0.43969,5.38305 0.58722,6.27241 1.10021,6.63266 0.25723,0.18063 0.98983,0.20899 2.41347,0.0934 3.9607,-0.32152 3.56799,-0.44935 4.09374,1.33253 0.25417,0.86141 1.24753,3.73262 2.20747,6.38045 1.41809,3.91156 2.19073,5.59017 4.1206,8.95235 2.08973,3.64068 5.34184,8.36685 8.06888,11.72624 0.486,0.59869 0.88364,1.33667 0.88364,1.63995 0,0.41298 -1.32598,1.71351 -5.28135,5.17999 -11.71906,10.27057 -14.97719,13.03427 -15.35615,13.02586 -0.21828,-0.005 -0.52527,-0.0828 -0.6822,-0.17329 z m 8.78442,-66.84532 c 0.60257,-0.59275 1.07137,-2.06187 1.33148,-4.17258 0.2197,-1.78277 -0.0945,-2.00408 -4.58861,-3.23157 -2.06463,-0.56393 -3.96963,-1.02475 -4.23333,-1.02407 -1.1984,0.003 -2.47712,0.49048 -2.83853,1.08183 -0.42449,0.69458 -0.94823,3.55393 -0.94823,5.17684 0,1.77463 0.3279,1.9486 4.63021,2.45668 4.58219,0.54113 5.86119,0.48588 6.64701,-0.28713 z m 15.47951,65.90325 c -2.4159,-1.7012 -2.41883,-1.67549 0.62045,-5.44079 2.19923,-2.72456 2.64508,-3.00268 4.21664,-2.63037 1.38953,0.32919 3.0666,1.4398 3.0666,2.0308 0,0.46176 -4.31836,6.41639 -4.98503,6.87392 -0.70231,0.48197 -1.28799,0.31471 -2.91866,-0.83356 z"
       id="path93"
       inkscape:connector-curvature="0" />
    <path
       style="fill:#baa5ba;stroke:#444455;stroke-width:5.4;stroke-miterlimit:4;stroke-dasharray:none;stroke-opacity:1;paint-order:stroke markers fill"
       d="m 102.85756,282.49044 c -0.41185,-0.41989 -1.37336,-2.34085 -1.8172,-3.6305 -0.429,-1.24649 -1.318712,-3.95489 -2.463702,-7.49983 -0.41758,-1.29289 -1.0568,-3.2574 -1.420478,-4.36558 -1.18363,-3.6067 -4.30461,-14.02447 -5.19787,-17.35037 -0.47952,-1.7854 -1.20428,-4.40475 -1.61059,-5.82077 -2.23272,-7.7812 -2.23153,-7.85028 0.14321,-8.29996 0.80914,-0.15322 1.47081,-0.38847 1.4704,-0.52279 -5.3e-4,-0.13432 -0.22766,-1.40278 -0.50498,-2.81879 -0.27733,-1.41602 -0.6396,-3.7835 -0.80505,-5.26108 -0.35072,-3.13209 -1.53213,-12.4248 -1.80734,-14.21611 l -0.18917,-1.23132 -2.28367,-0.55969 c -1.25602,-0.30783 -2.47641,-0.69795 -2.71198,-0.86694 -0.51764,-0.37135 -0.57612,-2.70045 -0.1581,-6.29708 0.82749,-7.1197 1.14397,-9.61922 1.61576,-12.76091 0.61983,-4.12754 4.32679,-20.34611 4.72794,-20.68554 0.19698,-0.16668 2.50678,0.70444 7.788458,2.93733 7.016182,2.96617 7.527022,3.22271 7.791962,3.91287 0.39851,1.03811 1.65338,8.37384 2.94117,17.19347 0.6023,4.12491 1.19513,7.80206 1.31739,8.17147 0.19997,0.60413 0.22471,0.56014 0.24617,-0.43763 0.0308,-1.43127 1.10208,-7.94444 2.4504,-14.89786 0.96441,-4.97356 1.51112,-6.94015 1.92937,-6.94015 0.0823,0 1.69333,0.65456 3.58015,1.45458 3.96296,1.68031 3.96743,1.68591 3.46829,4.34926 -0.76656,4.09024 -1.33842,8.49999 -1.62801,12.55397 -0.26542,3.7157 -0.24622,5.15927 0.129,9.69722 0.24246,2.9324 0.66688,6.50882 0.94316,7.94758 0.27628,1.43878 0.74641,4.27823 1.04473,6.30991 0.29833,2.03166 0.67947,4.12986 0.84698,4.66265 0.26025,0.82778 0.38534,0.94991 0.85978,0.83942 0.30537,-0.0711 0.99035,-0.19096 1.52217,-0.26632 1.12581,-0.15952 1.37324,0.0927 1.67172,1.70439 0.57889,3.12571 3.45441,15.03914 4.36015,18.06435 1.51709,5.0671 5.69702,14.10831 8.91192,19.27653 0.63519,1.02111 1.15489,2.04455 1.15489,2.27429 0,0.24837 -0.72405,0.90243 -1.78594,1.61332 -2.47107,1.65427 -7.2394,4.5256 -8.55262,5.15011 l -1.09005,0.51838 -0.50203,-0.52459 c -1.38253,-1.44466 -5.93908,-16.11699 -8.03955,-25.88776 -0.68823,-3.20142 -1.89604,-8.78674 -2.68403,-12.41184 -1.47306,-6.77673 -2.97789,-17.04479 -3.5259,-24.05868 -0.15302,-1.95844 -0.29253,-6.03857 -0.31003,-9.06697 l -0.0318,-5.50618 -1.0192,7.16403 c -1.30163,9.14925 -2.37908,17.32319 -2.36653,17.95333 0.0184,0.92416 -2.15227,1.61521 -2.84741,0.9065 -0.37345,-0.38075 -4.94114,-12.70149 -5.74698,-15.5017 -0.57283,-1.99054 -2.16445,-12.01097 -2.720318,-17.12649 -0.195734,-1.80119 -0.217364,-1.66949 -0.404574,2.46263 -0.32109,7.08748 1.343602,29.7145 2.742382,37.27531 1.76139,9.52085 2.95129,13.68757 7.57606,26.52928 5.39006,14.96671 6.57057,18.55103 6.35228,19.28695 -0.16326,0.55043 -1.13699,1.00353 -5.40468,2.51497 -0.9095,0.32211 -2.33825,0.82986 -3.175,1.12833 -3.65609,1.30412 -4.3147,1.43651 -4.78109,0.961 z"
       id="path67"
       inkscape:connector-curvature="0" />
    <path
       style="fill:#baa5ba;stroke:#444455;stroke-width:5.4;stroke-miterlimit:4;stroke-dasharray:none;stroke-opacity:1;paint-order:stroke markers fill"
       d="m 65.094791,282.44113 c -1.95518,-0.18961 -3.02184,-0.58889 -3.45954,-1.29501 -0.64697,-1.04373 -6.02375,-16.25051 -7.42532,-21.0005 -1.3064,-4.42748 -4.21291,-16.80308 -4.71155,-20.06123 -0.17525,-1.14511 0.21526,-1.26843 5.25353,-1.65895 2.34016,-0.18139 4.47858,-0.43112 4.75204,-0.55495 0.76274,-0.34541 0.83305,-1.00975 0.45104,-4.26154 l -0.35276,-3.00277 -1.7882,0.0703 -1.78821,0.0703 -0.37325,-0.75587 c -1.1844,-2.39853 -2.71264,-10.17295 -2.10139,-10.69015 0.14392,-0.12179 0.97484,-0.2845 1.84648,-0.36158 l 1.58481,-0.14016 -0.10922,-6.4096 c -0.0641,-3.7624 0.0109,-7.42668 0.18163,-8.87223 0.15997,-1.35445 0.36309,-3.30307 0.45138,-4.33027 l 0.16052,-1.86765 -3.16866,0.16002 c -3.01752,0.15239 -3.18242,0.13828 -3.4571,-0.296 -0.42711,-0.67528 -0.10261,-8.80119 0.53381,-13.36716 0.55237,-3.96302 2.44892,-13.28468 2.88097,-14.16015 0.1648,-0.33392 0.47388,-0.50372 0.91695,-0.50372 0.3676,0 5.6719,2.11733 11.78734,4.70518 8.769754,3.71106 11.183074,4.8242 11.422344,5.26853 0.23664,0.43947 0.20231,1.09096 -0.15614,2.96257 -1.42892,7.46106 -1.77636,10.06803 -2.03536,15.27207 -0.4124,8.28637 -0.55963,16.91118 -0.32294,18.91749 l 0.21129,1.79101 2.13511,-0.0716 c 1.6118,-0.0541 2.21233,0.007 2.45015,0.24962 0.52181,0.532 1.12712,5.03715 1.04623,7.78674 l -0.0752,2.55736 -1.85209,0.22513 c -1.74107,0.21163 -1.85706,0.2616 -1.93513,0.83362 -0.11083,0.8121 0.91835,5.8855 1.34558,6.63306 0.43719,0.76501 1.1129,0.75582 5.61664,-0.0764 4.96634,-0.91769 5.55703,-0.94753 6.0287,-0.30454 0.21172,0.28861 0.7672,2.33815 1.23439,4.55452 1.94067,9.20651 4.79706,19.02527 8.814895,30.30084 1.50427,4.22158 1.59502,4.59716 1.23924,5.12906 -0.42002,0.62794 -1.23262,0.9048 -6.469315,2.2041 -4.23004,1.04955 -7.14084,1.41971 -7.66296,0.97448 -0.71541,-0.61005 -2.71209,-4.79405 -4.05501,-8.49719 -1.44666,-3.98922 -1.96209,-5.70577 -4.03334,-13.43255 -0.74266,-2.77046 -1.94374,-7.2032 -2.66908,-9.85053 -2.0302,-7.40982 -3.607834,-14.05526 -3.815934,-16.07387 -0.11497,-1.11527 -0.33194,-1.9295 -0.55608,-2.0869 -0.4908,-0.34466 -4.25267,-0.0613 -5.05499,0.38079 -0.51216,0.28219 -0.59531,0.5228 -0.59531,1.72251 0,0.76698 0.22372,2.40175 0.49716,3.63281 0.27345,1.23107 0.57817,2.84278 0.67716,3.58157 0.2587,1.93072 0.89973,4.87115 1.51037,6.92818 0.29047,0.97847 0.8851,3.34179 1.32139,5.2518 1.06692,4.67078 6.236314,22.17074 7.743674,26.21471 0.66551,1.7854 1.21109,3.46129 1.21242,3.72417 0.001,0.26452 -0.29331,0.64192 -0.65978,0.8451 -1.43233,0.79411 -10.494774,1.43574 -14.623344,1.03535 z m 5.95897,-64.65592 c 0.41484,-0.45325 0.41377,-0.49746 -0.0908,-3.74583 -0.23837,-1.53465 -0.49271,-5.47963 -0.5932,-9.20092 -0.13555,-5.0195 -0.25925,-6.59926 -0.53904,-6.88418 -0.29284,-0.2982 -0.87025,-0.36977 -2.98312,-0.36977 -2.61194,0 -2.62086,0.002 -2.90803,0.61566 -0.40145,0.85802 -0.0935,8.64684 0.56422,14.27207 0.28795,2.46264 0.52515,4.60345 0.52711,4.75736 0.002,0.15392 0.25469,0.49233 0.56162,0.75204 0.51387,0.43481 0.73909,0.46003 2.84427,0.31856 1.62866,-0.10946 2.38134,-0.25758 2.61695,-0.51499 z"
       id="path119"
       inkscape:connector-curvature="0" />
  </g>
</svg>
